<svg aria-hidden="true" style="position:absolute;width:0;height:0; overflow:hidden" xmlns="http://www.w3.org/2000/svg"><defs><symbol id="icon-arrow-right" viewBox="0 0 32 32"><path d="M30.966 16.234l-9.6-9.6c-0.144-0.139-0.34-0.225-0.556-0.225-0.442 0-0.8 0.358-0.8 0.8 0 0.216 0.086 0.412 0.225 0.556l8.233 8.233h-26.069c-0.442 0-0.8 0.358-0.8 0.8s0.358 0.8 0.8 0.8v0h26.069l-8.234 8.234c-0.145 0.145-0.234 0.345-0.234 0.566 0 0.442 0.358 0.8 0.8 0.8 0.221 0 0.421-0.090 0.566-0.235v0l9.6-9.6c0.145-0.145 0.234-0.345 0.234-0.566s-0.090-0.421-0.234-0.566v0z"></path></symbol></defs></svg>