<svg width="50" height="50" xmlns="http://www.w3.org/2000/svg" fill="none"><ellipse fill="#fff" ry="24.5" rx="24" cy="25.5" cx="25"/><path fill="#D41443" d="M18.5144.87746C6.94289 4.38148 0 13.4919 0 25.0051 0 34.4159 4.82984 42.6253 12.779 46.73c4.1254 2.1024 4.7292.6007.9055-2.3027-2.7167-2.2025-3.2198-3.2036-3.2198-6.9079 0-2.603-.60378-4.7054-1.50937-5.5063-1.81119-1.5017-2.01244-5.4062-.20125-6.8078.70436-.6007 1.40872-2.603 1.50932-4.405.5031-6.6076 7.6473-12.8147 14.7914-12.8147 7.1441 0 14.2883 6.2071 14.7914 12.8147.1006 1.802.8049 3.8043 1.5093 4.405 1.8112 1.4016 1.6099 5.3061-.2012 6.8078-.9056.8009-1.5094 2.9033-1.5094 5.5063 0 3.7043-.5031 4.7054-3.2199 6.9079-4.2261 3.3038-3.0186 4.5052 1.7106 1.6019 6.641-4.1047 11.5715-13.0149 11.5715-20.924 0-15.81811-16.502-28.63278-31.1927-24.22774z"/><path fill="#D41443" d="M19.8225 12.4908c-1.8112.8009-3.3205 1.802-3.3205 2.4027 0 1.1013 5.4335 3.1036 8.5528 3.1036 3.1193 0 8.5528-2.0023 8.5528-3.1036 0-1.2014-6.2385-3.9045-8.7541-3.9045-1.0062.1002-3.3205.7008-5.031 1.5018zM14.0869 18.6978c-.3019.4005-.6037 1.702-.6037 3.0035 0 2.3026.1006 2.3026 11.5714 2.3026 11.4709 0 11.5715 0 11.5715-2.3026 0-3.4039-.9056-3.8044-4.1255-2.2026-3.6223 1.9022-11.2696 1.9022-14.892 0-1.6099-.8009-3.1192-1.1012-3.5217-.8009zM11.1688 27.608c-1.6099 1.702 1.1069 2.4028 8.9554 2.4028h8.4522v3.504c0 1.9022.5031 3.504 1.0062 3.504.6037 0 1.0062-1.5017 1.0062-3.4039 0-3.3038.2013-3.504 4.0249-3.8044 2.2137-.2002 4.0249-.8009 4.0249-1.3014 0-1.1013-26.3629-2.0023-27.4698-.9011z"/><path fill="#D41443" d="M13.4832 36.4181c0 5.5063 1.9118 6.6075 11.5714 6.6075 9.6597 0 11.5715-1.1012 11.5715-6.6075 0-2.4028-.5031-3.4039-1.5093-3.4039-.9056 0-1.5093.901-1.5093 2.4027 0 5.6064-7.6473 6.107-8.7541.6007-.5031-2.9033-.805-3.0034-5.9367-3.0034h-5.4335v3.4039zM19.722 47.7312c.6037 3.2037 10.8672 2.9033 10.8672-.2002 0-1.1013-1.3081-1.5018-5.6349-1.5018-4.7292 0-5.5342.3004-5.2323 1.702z"/></svg>